<?xml version="1.0" standalone="no"?>
<!DOCTYPE svg PUBLIC "-//W3C//DTD SVG 20010904//EN"
 "http://www.w3.org/TR/2001/REC-SVG-20010904/DTD/svg10.dtd">
<svg version="1.0" xmlns="http://www.w3.org/2000/svg"
 width="496.000000pt" height="496.000000pt" viewBox="0 0 496.000000 496.000000"
 preserveAspectRatio="xMidYMid meet">
<metadata>
Created by potrace 1.11, written by Peter Selinger 2001-2013
</metadata>
<g transform="translate(0.000000,496.000000) scale(0.100000,-0.100000)"
fill="#000000" stroke="none">
<path d="M723 3317 c-4 -6 -22 -62 -40 -123 -38 -132 -108 -323 -158 -429 -19
-41 -35 -77 -35 -80 0 -2 -25 -51 -56 -107 -77 -142 -172 -286 -261 -395 -90
-111 -90 -110 15 -241 l34 -42 46 39 c266 223 495 547 658 928 72 169 155 427
140 435 -26 15 -76 21 -203 24 -98 3 -134 1 -140 -9z"/>
<path d="M298 3126 c-90 -74 -162 -169 -217 -287 -53 -112 -72 -193 -78 -319
-5 -93 -3 -103 10 -90 40 40 194 337 257 495 39 97 90 245 86 245 -2 0 -28
-20 -58 -44z"/>
<path d="M1331 3088 c-169 -531 -498 -1018 -860 -1274 -39 -27 -70 -52 -71
-56 0 -4 31 -23 69 -42 l69 -35 98 50 c363 183 682 537 911 1007 l64 134 -33
55 c-50 84 -189 233 -217 233 -4 0 -17 -33 -30 -72z"/>
<path d="M2265 3123 c-171 -28 -239 -87 -248 -216 -11 -138 62 -206 273 -257
160 -38 204 -72 203 -154 -1 -62 -25 -100 -78 -126 -89 -43 -241 -30 -395 34
-13 5 -16 -3 -17 -44 -2 -50 -1 -52 34 -67 104 -43 284 -56 379 -28 70 20 138
82 158 142 34 99 10 205 -57 256 -50 38 -70 46 -187 77 -193 50 -230 80 -216
174 7 43 29 72 73 95 56 29 217 15 315 -28 26 -11 49 -17 51 -13 2 4 3 27 3
52 l-1 45 -63 22 c-34 12 -90 25 -125 28 -34 4 -66 7 -72 9 -5 1 -19 1 -30 -1z"/>
<path d="M4510 3015 l0 -85 -40 0 -40 0 0 -45 0 -45 40 0 40 0 0 -228 c0 -216
1 -230 23 -272 31 -63 86 -90 170 -85 34 2 71 6 82 8 11 3 23 6 27 6 3 1 6 24
6 52 1 44 -1 50 -16 44 -34 -13 -139 -17 -160 -6 -32 17 -38 59 -37 276 l0
200 105 5 105 5 1 43 c1 48 10 45 -141 43 l-70 -1 0 85 1 85 -48 0 -48 0 0
-85z"/>
<path d="M4091 2938 c-145 -25 -238 -143 -245 -311 -10 -249 112 -382 342
-373 81 4 184 29 199 49 8 10 10 46 4 95 -1 8 -6 9 -18 3 -71 -38 -93 -44
-183 -47 -109 -3 -164 15 -201 68 -22 30 -53 118 -45 126 3 2 114 4 248 5
l243 2 0 45 c1 144 -59 264 -157 316 -38 20 -134 31 -187 22z m140 -110 c20
-9 46 -30 59 -48 22 -31 54 -119 46 -127 -6 -7 -375 -5 -385 2 -14 8 7 75 36
113 56 75 153 99 244 60z"/>
<path d="M3099 2932 c-24 -3 -32 -19 -109 -225 -46 -122 -90 -237 -98 -256
l-14 -35 -105 257 -106 257 -53 0 -53 0 53 -127 c29 -71 89 -216 134 -324 l81
-195 -17 -49 c-35 -100 -95 -135 -177 -101 -18 8 -36 12 -39 8 -3 -3 -6 -25
-6 -48 0 -50 13 -61 83 -70 82 -11 159 31 199 109 11 22 80 198 153 391 73
193 138 363 143 377 10 25 9 27 -16 30 -15 2 -39 3 -53 1z"/>
<path d="M3405 2933 c-26 -5 -67 -20 -137 -51 -49 -21 -58 -29 -59 -51 -1 -31
-1 -540 0 -558 1 -9 17 -13 46 -13 40 0 45 3 46 23 0 12 1 133 1 269 l1 246
71 23 c127 41 243 26 275 -35 20 -38 22 -68 22 -298 l0 -228 49 0 49 0 0 235
c-1 283 -9 324 -74 384 -24 22 -62 45 -85 51 -37 10 -156 12 -205 3z"/>
<path d="M1685 2395 c-5 -11 -31 -51 -59 -90 -203 -286 -428 -488 -701 -630
-49 -25 -92 -49 -95 -52 -7 -6 130 6 195 18 262 49 502 245 612 499 35 81 67
215 60 252 -3 22 -4 22 -12 3z"/>
<path d="M1957 1963 c-15 -15 -5 -39 23 -55 36 -20 31 -47 -9 -49 -26 -2 -26
-2 -2 -6 16 -3 29 1 38 13 18 25 17 27 -18 48 -34 20 -34 37 2 47 l24 7 -26 1
c-14 1 -29 -2 -32 -6z"/>
<path d="M2030 1969 c0 -3 9 -23 19 -45 11 -21 17 -42 14 -46 -2 -5 1 -8 7 -8
6 0 10 8 7 18 -2 9 7 32 20 50 13 17 19 32 13 32 -6 0 -16 -11 -22 -25 -11
-24 -28 -34 -28 -17 0 9 -29 50 -30 41z"/>
<path d="M2130 1955 c-15 -18 -1 -40 31 -50 29 -10 19 -39 -16 -47 -29 -6 -29
-6 5 -5 28 2 36 7 38 24 2 16 -5 26 -27 38 -34 17 -33 41 2 48 l22 4 -21 2
c-12 0 -27 -6 -34 -14z"/>
<path d="M2211 1961 c17 -4 25 -12 23 -23 -1 -10 2 -18 7 -18 6 0 9 8 7 17 -2
11 6 19 22 24 18 5 9 7 -30 7 -36 0 -46 -2 -29 -7z"/>
<path d="M2300 1910 l0 -60 38 2 c36 1 36 1 5 5 -27 4 -33 9 -33 28 0 18 6 25
28 28 l27 4 -27 2 c-21 1 -28 6 -28 20 0 14 8 21 28 24 25 4 25 4 -5 6 l-33 1
0 -60z"/>
<path d="M2387 1948 c-8 -42 -8 -104 1 -90 5 7 8 26 7 42 -2 38 10 39 23 3 6
-16 11 -23 11 -17 1 13 -27 84 -33 84 -2 0 -6 -10 -9 -22z"/>
<path d="M2470 1933 c-7 -21 -19 -46 -28 -56 -8 -9 -12 -20 -9 -24 9 -8 9 -7
35 47 l21 45 1 -47 c0 -27 4 -48 9 -48 4 0 7 12 5 28 -2 15 -4 42 -6 60 -3 42
-14 41 -28 -5z"/>
<path d="M2529 1954 c-11 -14 -10 -19 9 -34 12 -10 28 -20 34 -22 7 -3 9 -12
5 -22 -5 -13 -14 -17 -33 -13 -17 3 -22 1 -15 -6 5 -5 21 -7 36 -3 33 8 31 46
-2 61 -13 5 -23 13 -23 17 0 5 -1 11 -2 16 -1 4 11 10 28 13 28 7 28 7 3 8
-15 0 -33 -6 -40 -15z"/>
<path d="M2663 1908 c-15 -45 -17 -56 -6 -40 20 28 59 29 68 1 4 -11 9 -18 12
-15 7 7 -37 116 -46 116 -4 0 -17 -28 -28 -62z m43 -5 c-2 -3 -11 -3 -19 -1
-11 2 -12 9 -5 28 l10 25 9 -24 c5 -13 7 -26 5 -28z"/>
<path d="M2762 1908 l1 -63 6 50 6 50 30 -47 c17 -27 33 -48 38 -48 4 0 6 28
5 63 -1 57 -2 58 -5 14 -4 -41 -6 -47 -19 -37 -8 7 -14 19 -14 26 0 8 -4 14
-9 14 -5 0 -13 9 -16 20 -13 40 -25 18 -23 -42z"/>
<path d="M2878 1963 c-2 -5 -3 -30 -3 -58 0 -48 1 -50 30 -53 59 -6 95 58 56
97 -20 20 -76 29 -83 14z m79 -33 c16 -32 -3 -64 -39 -68 -21 -3 -26 2 -29 25
-8 55 0 74 29 71 16 -2 31 -13 39 -28z"/>
<path d="M3035 1960 c-3 -5 -2 -10 3 -10 5 0 24 -22 43 -50 19 -27 38 -50 42
-50 4 0 7 27 6 60 -1 33 -5 60 -9 60 -3 0 -5 -17 -4 -37 2 -57 -5 -58 -38 -8
-32 49 -34 50 -43 35z"/>
<path d="M3150 1910 l0 -60 38 2 c35 1 35 1 6 5 -25 3 -31 9 -31 28 0 18 6 25
26 28 l26 4 -27 2 c-20 1 -26 6 -25 21 1 17 8 20 49 20 26 0 48 -4 48 -10 0
-5 5 -10 11 -10 5 0 8 4 4 9 -3 5 5 12 17 14 13 2 -14 5 -59 6 l-83 1 0 -60z"/>
<path d="M3324 1954 c11 -58 28 -104 36 -99 5 3 15 25 21 48 l12 42 15 -49 c7
-26 17 -44 22 -40 12 13 41 115 30 109 -5 -3 -12 -21 -16 -40 -8 -42 -21 -45
-30 -7 -12 54 -14 58 -25 42 -5 -8 -14 -33 -21 -55 l-11 -40 -10 45 c-5 25
-13 49 -18 54 -5 6 -7 2 -5 -10z"/>
<path d="M3491 1956 c-33 -39 -11 -106 34 -106 49 0 77 54 50 97 -18 26 -66
31 -84 9z m68 -5 c17 -11 18 -56 1 -76 -29 -35 -84 2 -72 48 9 35 40 47 71 28z"/>
<path d="M3603 1950 c-1 -11 3 -20 8 -20 6 0 7 5 4 10 -8 13 20 24 41 16 13
-5 14 -9 4 -21 -7 -8 -21 -15 -32 -15 -24 0 -34 -25 -20 -53 10 -20 10 -20 9
8 -2 24 2 30 18 30 12 0 21 -8 23 -20 6 -33 19 -38 14 -5 -2 16 -9 30 -14 30
-5 0 -3 7 6 15 23 23 9 45 -28 45 -25 0 -32 -5 -33 -20z"/>
<path d="M3700 1912 c-3 -34 -2 -62 3 -62 4 0 7 14 7 30 0 38 10 38 35 0 11
-16 24 -30 29 -30 4 0 -4 16 -19 36 -15 20 -24 39 -19 43 5 3 16 15 24 26 8
11 0 7 -17 -9 l-31 -28 -4 28 c-2 16 -6 2 -8 -34z"/>
<path d="M3820 1961 c22 -5 25 -11 25 -48 -1 -24 2 -43 6 -43 4 0 6 19 5 42
-1 37 2 43 24 49 17 5 8 7 -30 7 -35 0 -46 -3 -30 -7z"/>
<path d="M3910 1910 l0 -60 38 2 c36 1 36 1 5 5 -27 4 -33 9 -33 28 0 18 6 25
28 28 l27 4 -27 2 c-21 1 -28 6 -28 20 0 15 8 21 33 24 31 4 31 4 -5 5 l-38 2
0 -60z"/>
<path d="M4001 1945 c-37 -48 6 -107 66 -92 11 3 6 5 -12 6 -39 1 -55 17 -55
52 0 31 9 39 54 50 l31 7 -32 1 c-23 1 -37 -6 -52 -24z"/>
<path d="M4100 1922 c-3 -30 -2 -59 2 -65 4 -7 8 3 8 21 0 30 2 32 34 32 31 0
34 -3 31 -25 -1 -14 2 -28 6 -31 5 -3 9 23 9 57 0 34 -3 59 -7 55 -4 -4 -8
-15 -8 -24 0 -12 -10 -18 -32 -20 -28 -3 -32 0 -35 25 -3 18 -6 9 -8 -25z"/>
<path d="M4214 1911 c0 -33 2 -58 6 -56 3 2 6 24 5 49 0 26 0 46 1 46 1 0 12
-16 24 -36 12 -19 24 -33 27 -30 6 5 -47 86 -56 86 -4 0 -7 -27 -7 -59z"/>
<path d="M4291 1934 c0 -22 -2 -48 -3 -58 -2 -10 2 -20 7 -22 6 -3 10 18 9 51
0 62 -13 88 -13 29z"/>
<path d="M4343 1958 c-48 -61 11 -139 72 -94 21 15 23 69 4 92 -14 17 -63 18
-76 2z m65 -10 c7 -7 12 -24 12 -38 0 -32 -17 -50 -46 -50 -24 0 -40 30 -35
65 5 34 45 47 69 23z"/>
<path d="M4536 1948 c-9 -12 -16 -29 -16 -38 0 -27 30 -60 55 -60 32 0 55 25
55 60 0 56 -64 82 -94 38z m76 -13 c8 -19 8 -31 0 -50 -21 -45 -75 -27 -75 25
0 52 54 70 75 25z"/>
<path d="M4660 1948 c-37 -40 -7 -98 51 -98 21 0 28 6 32 26 5 27 -11 40 -35
31 -8 -4 -6 -6 5 -6 10 -1 17 -9 17 -22 0 -16 -5 -20 -26 -17 -66 8 -61 87 6
99 l35 6 -32 2 c-22 1 -39 -6 -53 -21z"/>
<path d="M4763 1920 c0 -27 3 -50 6 -50 4 0 7 22 6 50 0 27 -3 50 -6 50 -4 0
-6 -22 -6 -50z"/>
<path d="M4803 1950 c-1 -11 2 -20 8 -20 5 0 8 5 7 12 -2 7 11 15 27 19 l30 7
-35 1 c-29 1 -36 -3 -37 -19z"/>
<path d="M4891 1956 c-10 -12 -8 -19 7 -34 11 -11 25 -21 33 -24 8 -3 10 -11
6 -22 -5 -13 -14 -17 -33 -13 -16 3 -22 1 -16 -5 5 -5 20 -8 33 -6 34 4 37 41
5 62 -34 22 -33 44 2 49 l27 4 -26 2 c-15 0 -32 -5 -38 -13z"/>
<path d="M4452 1910 c0 -22 4 -40 7 -40 4 0 7 18 7 40 0 22 -3 40 -7 40 -4 0
-7 -18 -7 -40z"/>
<path d="M3034 1915 c0 -14 4 -25 8 -25 4 0 8 11 8 25 0 14 -4 25 -8 25 -4 0
-8 -11 -8 -25z"/>
<path d="M3260 1888 c0 -23 3 -38 6 -35 10 9 11 77 2 77 -5 0 -8 -19 -8 -42z"/>
<path d="M4803 1885 c2 -33 4 -35 37 -34 34 1 34 1 6 8 -20 4 -30 13 -32 28
-3 18 2 22 29 26 32 4 32 4 -5 5 -36 2 -37 1 -35 -33z"/>
<path d="M2233 1875 c0 -8 4 -15 9 -15 4 0 8 7 8 15 0 8 -4 15 -8 15 -5 0 -9
-7 -9 -15z"/>
<path d="M3035 1870 c-3 -5 -1 -10 4 -10 6 0 11 5 11 10 0 6 -2 10 -4 10 -3 0
-8 -4 -11 -10z"/>
<path d="M4468 1853 c12 -2 30 -2 40 0 9 3 -1 5 -23 4 -22 0 -30 -2 -17 -4z"/>
</g>
</svg>
